<?xml version="1.0" standalone="no"?>

<svg width="100%" height="100%" version="1.1"
xmlns="http://www.w3.org/2000/svg">

<polyline points="110,135 280,30 320,90"
style="fill:white;stroke:red;stroke-width:2"/>

<polyline points="115,140 277,40 315,95"
style="fill:white;stroke:red;stroke-width:2"/>

<line x1="30" y1="50" x2="202" y2="240"
style="stroke:rgb(34,221,221);stroke-width:5"/>

<line x1="100" y1="240" x2="272" y2="50"
style="stroke:rgb(34,221,221);stroke-width:5"/>

<circle cx="70" cy="82" r="5" stroke="rgb(247,199,9)" stroke-width="1" fill="white"/>
<circle cx="79" cy="76" r="5" stroke="rgb(247,199,9)" stroke-width="1" fill="white"/>
<circle cx="88" cy="70" r="5" stroke="rgb(247,199,9)" stroke-width="1" fill="white"/>
<circle cx="97" cy="64" r="5" stroke="rgb(247,199,9)" stroke-width="1" fill="white"/>
<circle cx="106" cy="58" r="5" stroke="rgb(247,199,9)" stroke-width="1" fill="white"/>
<circle cx="115" cy="52" r="5" stroke="rgb(247,199,9)" stroke-width="1" fill="white"/>
<circle cx="124" cy="46" r="5" stroke="rgb(247,199,9)" stroke-width="1" fill="white"/>
<circle cx="133" cy="52" r="5" stroke="rgb(247,199,9)" stroke-width="1" fill="white"/>
<circle cx="142" cy="58" r="5" stroke="rgb(247,199,9)" stroke-width="1" fill="white"/>
<circle cx="151" cy="64" r="5" stroke="rgb(247,199,9)" stroke-width="1" fill="white"/>
<circle cx="160" cy="58" r="5" stroke="rgb(247,199,9)" stroke-width="1" fill="white"/>
<circle cx="169" cy="52" r="5" stroke="rgb(247,199,9)" stroke-width="1" fill="white"/>
<circle cx="178" cy="46" r="5" stroke="rgb(247,199,9)" stroke-width="1" fill="white"/>
<circle cx="187" cy="52" r="5" stroke="rgb(247,199,9)" stroke-width="1" fill="white"/>
<circle cx="196" cy="58" r="5" stroke="rgb(247,199,9)" stroke-width="1" fill="white"/>
<circle cx="205" cy="64" r="5" stroke="rgb(247,199,9)" stroke-width="1" fill="white"/>
<circle cx="214" cy="70" r="5" stroke="rgb(247,199,9)" stroke-width="1" fill="white"/>
<circle cx="223" cy="76" r="5" stroke="rgb(247,199,9)" stroke-width="1" fill="white"/>
<circle cx="232" cy="82" r="5" stroke="rgb(247,199,9)" stroke-width="1" fill="white"/>


</svg>